<mxfile host="www.draw.io" modified="2019-11-08T01:38:55.389Z" agent="Mozilla/5.0 (Macintosh; Intel Mac OS X 10_14_6) AppleWebKit/537.36 (KHTML, like Gecko) Chrome/78.0.3904.87 Safari/537.36" etag="YT1qQz--ApYsFpgk3ybw" version="12.2.2" type="github" pages="1">
  <diagram id="BB8pRi5w4H0J5GErrZnj" name="Page-1">
    <mxGraphModel dx="1739" dy="934" grid="1" gridSize="10" guides="1" tooltips="1" connect="1" arrows="1" fold="1" page="1" pageScale="1" pageWidth="850" pageHeight="1100" math="0" shadow="0">
      <root>
        <mxCell id="0"/>
        <mxCell id="1" parent="0"/>
        <mxCell id="aO3sSB8IACZXg21FS-gy-3" value="" style="edgeStyle=orthogonalEdgeStyle;rounded=0;orthogonalLoop=1;jettySize=auto;html=1;" parent="1" source="aO3sSB8IACZXg21FS-gy-1" target="aO3sSB8IACZXg21FS-gy-2" edge="1">
          <mxGeometry relative="1" as="geometry">
            <Array as="points">
              <mxPoint x="535" y="300"/>
            </Array>
          </mxGeometry>
        </mxCell>
        <mxCell id="aO3sSB8IACZXg21FS-gy-5" value="" style="edgeStyle=orthogonalEdgeStyle;rounded=0;orthogonalLoop=1;jettySize=auto;html=1;" parent="1" source="aO3sSB8IACZXg21FS-gy-1" target="aO3sSB8IACZXg21FS-gy-4" edge="1">
          <mxGeometry relative="1" as="geometry"/>
        </mxCell>
        <mxCell id="aO3sSB8IACZXg21FS-gy-1" value="Welcome" style="whiteSpace=wrap;html=1;aspect=fixed;" parent="1" vertex="1">
          <mxGeometry x="260" y="230" width="80" height="80" as="geometry"/>
        </mxCell>
        <mxCell id="aO3sSB8IACZXg21FS-gy-26" value="" style="edgeStyle=orthogonalEdgeStyle;rounded=0;orthogonalLoop=1;jettySize=auto;html=1;" parent="1" source="aO3sSB8IACZXg21FS-gy-4" target="aO3sSB8IACZXg21FS-gy-25" edge="1">
          <mxGeometry relative="1" as="geometry"/>
        </mxCell>
        <mxCell id="aO3sSB8IACZXg21FS-gy-4" value="Register" style="whiteSpace=wrap;html=1;aspect=fixed;" parent="1" vertex="1">
          <mxGeometry x="260" y="370" width="80" height="80" as="geometry"/>
        </mxCell>
        <mxCell id="aO3sSB8IACZXg21FS-gy-7" value="" style="edgeStyle=orthogonalEdgeStyle;rounded=0;orthogonalLoop=1;jettySize=auto;html=1;" parent="1" source="aO3sSB8IACZXg21FS-gy-2" target="aO3sSB8IACZXg21FS-gy-6" edge="1">
          <mxGeometry relative="1" as="geometry"/>
        </mxCell>
        <mxCell id="aO3sSB8IACZXg21FS-gy-11" value="" style="edgeStyle=orthogonalEdgeStyle;rounded=0;orthogonalLoop=1;jettySize=auto;html=1;" parent="1" source="aO3sSB8IACZXg21FS-gy-2" target="aO3sSB8IACZXg21FS-gy-10" edge="1">
          <mxGeometry relative="1" as="geometry"/>
        </mxCell>
        <mxCell id="aO3sSB8IACZXg21FS-gy-2" value="Login" style="whiteSpace=wrap;html=1;aspect=fixed;" parent="1" vertex="1">
          <mxGeometry x="495" y="540" width="80" height="80" as="geometry"/>
        </mxCell>
        <mxCell id="Z8GrYoV1MDescGCDJD8p-2" value="" style="edgeStyle=orthogonalEdgeStyle;rounded=0;orthogonalLoop=1;jettySize=auto;html=1;" parent="1" source="aO3sSB8IACZXg21FS-gy-10" target="Z8GrYoV1MDescGCDJD8p-1" edge="1">
          <mxGeometry relative="1" as="geometry"/>
        </mxCell>
        <mxCell id="Z8GrYoV1MDescGCDJD8p-4" value="" style="edgeStyle=orthogonalEdgeStyle;rounded=0;orthogonalLoop=1;jettySize=auto;html=1;" parent="1" source="aO3sSB8IACZXg21FS-gy-10" target="Z8GrYoV1MDescGCDJD8p-3" edge="1">
          <mxGeometry relative="1" as="geometry"/>
        </mxCell>
        <mxCell id="aO3sSB8IACZXg21FS-gy-10" value="Home" style="whiteSpace=wrap;html=1;aspect=fixed;" parent="1" vertex="1">
          <mxGeometry x="710" y="540" width="80" height="80" as="geometry"/>
        </mxCell>
        <mxCell id="Z8GrYoV1MDescGCDJD8p-3" value="User&lt;br&gt;Settings" style="whiteSpace=wrap;html=1;aspect=fixed;" parent="1" vertex="1">
          <mxGeometry x="710" y="790" width="80" height="80" as="geometry"/>
        </mxCell>
        <mxCell id="Z8GrYoV1MDescGCDJD8p-1" value="Contest" style="whiteSpace=wrap;html=1;aspect=fixed;" parent="1" vertex="1">
          <mxGeometry x="970" y="540" width="80" height="80" as="geometry"/>
        </mxCell>
        <mxCell id="aO3sSB8IACZXg21FS-gy-24" value="" style="edgeStyle=orthogonalEdgeStyle;rounded=0;orthogonalLoop=1;jettySize=auto;html=1;" parent="1" source="aO3sSB8IACZXg21FS-gy-6" target="aO3sSB8IACZXg21FS-gy-23" edge="1">
          <mxGeometry relative="1" as="geometry"/>
        </mxCell>
        <mxCell id="aO3sSB8IACZXg21FS-gy-6" value="Forgot Password" style="whiteSpace=wrap;html=1;aspect=fixed;" parent="1" vertex="1">
          <mxGeometry x="270" y="540" width="80" height="80" as="geometry"/>
        </mxCell>
        <mxCell id="aO3sSB8IACZXg21FS-gy-17" value="No" style="edgeStyle=orthogonalEdgeStyle;rounded=0;orthogonalLoop=1;jettySize=auto;html=1;exitX=0;exitY=0.5;exitDx=0;exitDy=0;entryX=1;entryY=0.5;entryDx=0;entryDy=0;" parent="1" source="aO3sSB8IACZXg21FS-gy-12" target="aO3sSB8IACZXg21FS-gy-1" edge="1">
          <mxGeometry x="-0.6522" relative="1" as="geometry">
            <Array as="points">
              <mxPoint x="480" y="160"/>
              <mxPoint x="480" y="270"/>
            </Array>
            <mxPoint as="offset"/>
          </mxGeometry>
        </mxCell>
        <mxCell id="aO3sSB8IACZXg21FS-gy-18" style="edgeStyle=orthogonalEdgeStyle;rounded=0;orthogonalLoop=1;jettySize=auto;html=1;entryX=0.5;entryY=0;entryDx=0;entryDy=0;exitX=0.5;exitY=1;exitDx=0;exitDy=0;" parent="1" source="aO3sSB8IACZXg21FS-gy-12" target="aO3sSB8IACZXg21FS-gy-10" edge="1">
          <mxGeometry relative="1" as="geometry">
            <mxPoint x="590" y="280" as="sourcePoint"/>
          </mxGeometry>
        </mxCell>
        <mxCell id="aO3sSB8IACZXg21FS-gy-19" value="Yes" style="text;html=1;resizable=0;points=[];align=center;verticalAlign=middle;labelBackgroundColor=#ffffff;" parent="aO3sSB8IACZXg21FS-gy-18" vertex="1" connectable="0">
          <mxGeometry x="-0.3105" y="-2" relative="1" as="geometry">
            <mxPoint x="2" y="-68" as="offset"/>
          </mxGeometry>
        </mxCell>
        <mxCell id="aO3sSB8IACZXg21FS-gy-12" value="Authenticated?" style="rhombus;whiteSpace=wrap;html=1;" parent="1" vertex="1">
          <mxGeometry x="690" y="130" width="120" height="60" as="geometry"/>
        </mxCell>
        <mxCell id="aO3sSB8IACZXg21FS-gy-14" value="" style="edgeStyle=orthogonalEdgeStyle;rounded=0;orthogonalLoop=1;jettySize=auto;html=1;exitX=0.5;exitY=0.5;exitDx=0;exitDy=0;exitPerimeter=0;" parent="1" source="aO3sSB8IACZXg21FS-gy-21" target="aO3sSB8IACZXg21FS-gy-12" edge="1">
          <mxGeometry relative="1" as="geometry">
            <mxPoint x="590" y="170" as="sourcePoint"/>
            <Array as="points">
              <mxPoint x="750" y="70"/>
            </Array>
          </mxGeometry>
        </mxCell>
        <mxCell id="aO3sSB8IACZXg21FS-gy-21" value="User/Contestant" style="shape=umlActor;verticalLabelPosition=bottom;labelBackgroundColor=#ffffff;verticalAlign=top;html=1;outlineConnect=0;" parent="1" vertex="1">
          <mxGeometry x="480" y="40" width="30" height="60" as="geometry"/>
        </mxCell>
        <mxCell id="aO3sSB8IACZXg21FS-gy-23" value="&lt;div&gt;&lt;span&gt;Password Reset E-mail&lt;/span&gt;&lt;/div&gt;" style="shape=hexagon;perimeter=hexagonPerimeter2;whiteSpace=wrap;html=1;align=center;" parent="1" vertex="1">
          <mxGeometry x="130" y="540" width="90" height="80" as="geometry"/>
        </mxCell>
        <mxCell id="aO3sSB8IACZXg21FS-gy-25" value="&lt;div&gt;&lt;span&gt;New Account&lt;/span&gt;&lt;/div&gt;&lt;div&gt;&lt;span&gt;E-mail&lt;/span&gt;&lt;/div&gt;" style="shape=hexagon;perimeter=hexagonPerimeter2;whiteSpace=wrap;html=1;align=center;" parent="1" vertex="1">
          <mxGeometry x="130" y="370" width="90" height="80" as="geometry"/>
        </mxCell>
        <mxCell id="aO3sSB8IACZXg21FS-gy-27" value="&lt;h1&gt;Welcome&lt;/h1&gt;&lt;p&gt;This is the screen you will first see after downloading the app for the first time or if your session expires and you need to log back in.&lt;/p&gt;" style="text;html=1;strokeColor=none;fillColor=none;spacing=5;spacingTop=-20;whiteSpace=wrap;overflow=hidden;rounded=0;align=center;" parent="1" vertex="1">
          <mxGeometry x="205" y="100" width="190" height="120" as="geometry"/>
        </mxCell>
        <mxCell id="aO3sSB8IACZXg21FS-gy-28" value="&lt;h1&gt;&lt;font style=&quot;font-size: 18px&quot;&gt;Registration&lt;/font&gt;&lt;/h1&gt;&lt;p&gt;When a new user registers successfully, their account is created and an e-mail is sent out.&lt;/p&gt;" style="text;html=1;strokeColor=none;fillColor=none;spacing=5;spacingTop=-20;whiteSpace=wrap;overflow=hidden;rounded=0;align=center;" parent="1" vertex="1">
          <mxGeometry x="50" y="250" width="190" height="120" as="geometry"/>
        </mxCell>
        <mxCell id="aO3sSB8IACZXg21FS-gy-29" value="&lt;h1&gt;&lt;font style=&quot;font-size: 18px&quot;&gt;Login Screen&lt;/font&gt;&lt;/h1&gt;&lt;p&gt;You can log in and get taken to Home or you can go to Forgot Password screen.&lt;/p&gt;" style="text;html=1;strokeColor=none;fillColor=#ffffff;spacing=5;spacingTop=-20;whiteSpace=wrap;overflow=hidden;rounded=0;align=center;opacity=90;" parent="1" vertex="1">
          <mxGeometry x="440" y="370" width="190" height="120" as="geometry"/>
        </mxCell>
        <mxCell id="aO3sSB8IACZXg21FS-gy-30" value="&lt;h1&gt;&lt;font style=&quot;font-size: 18px&quot;&gt;Forgotten E-mail&lt;/font&gt;&lt;/h1&gt;&lt;p&gt;When a user forgets their password, they can have it reset and an e-mail is sent to their e-mail address, if it exists.&lt;/p&gt;" style="text;html=1;strokeColor=none;fillColor=none;spacing=5;spacingTop=-20;whiteSpace=wrap;overflow=hidden;rounded=0;align=center;" parent="1" vertex="1">
          <mxGeometry x="140" y="640" width="190" height="120" as="geometry"/>
        </mxCell>
        <mxCell id="aO3sSB8IACZXg21FS-gy-31" value="&lt;h1&gt;&lt;font style=&quot;font-size: 18px&quot;&gt;Home Screen&lt;/font&gt;&lt;/h1&gt;&lt;p&gt;The home screen is typically the second page a user will see and should allow the user to change their preferences, and see/filter the list of contests with contests the user has joined at the top.&lt;/p&gt;" style="text;html=1;spacing=5;spacingTop=-20;whiteSpace=wrap;overflow=hidden;rounded=0;align=center;fillColor=#ffffff;opacity=90;" parent="1" vertex="1">
          <mxGeometry x="655" y="360" width="190" height="140" as="geometry"/>
        </mxCell>
        <mxCell id="Z8GrYoV1MDescGCDJD8p-5" value="&lt;h1&gt;&lt;font style=&quot;font-size: 18px&quot;&gt;User Settings Screen&lt;/font&gt;&lt;/h1&gt;&lt;p&gt;In the User Settings area, the user will be able to update their information (first name, last name, e-mail, password, avatar).&lt;/p&gt;" style="text;html=1;strokeColor=none;fillColor=#ffffff;spacing=5;spacingTop=-20;whiteSpace=wrap;overflow=hidden;rounded=0;align=center;opacity=90;" parent="1" vertex="1">
          <mxGeometry x="620" y="650" width="260" height="120" as="geometry"/>
        </mxCell>
        <mxCell id="Z8GrYoV1MDescGCDJD8p-8" value="&lt;h1&gt;&lt;font style=&quot;font-size: 18px&quot;&gt;Contest Screen&lt;/font&gt;&lt;/h1&gt;&lt;p&gt;The contest screen will show the details of a single contest and show the user a &quot;JOIN&quot; button if the contest is in pre-draft mode and the user is eligible to join. Once the user clicks &quot;JOIN,&quot; they are prompted to pay the entry fee and once paid, they are entered into the contest.&lt;/p&gt;" style="text;html=1;spacing=5;spacingTop=-20;whiteSpace=wrap;overflow=hidden;rounded=0;align=center;fillColor=#ffffff;opacity=90;" parent="1" vertex="1">
          <mxGeometry x="915" y="345" width="190" height="190" as="geometry"/>
        </mxCell>
      </root>
    </mxGraphModel>
  </diagram>
</mxfile>
